<?xml version="1.0" encoding="UTF-8" standalone="no"?>
<!-- Created with Inkscape (http://www.inkscape.org/) -->

<svg
   version="1.1"
   id="svg2"
   width="2441.3333"
   height="1388"
   viewBox="0 0 2441.3333 1388"
   sodipodi:docname="tahc-logo-color.eps"
   xmlns:inkscape="http://www.inkscape.org/namespaces/inkscape"
   xmlns:sodipodi="http://sodipodi.sourceforge.net/DTD/sodipodi-0.dtd"
   xmlns="http://www.w3.org/2000/svg"
   xmlns:svg="http://www.w3.org/2000/svg">
  <defs
     id="defs6">
    <clipPath
       clipPathUnits="userSpaceOnUse"
       id="clipPath18">
      <path
         d="m 18310,8810 c -1138.7,-262.55 -2408.4,-556.11 -4585.8,-708.43 -1033.8,-72.3 -1588.3,11.46 -2150,-9.48 -249.3,-8.29 -384.6,-244.17 -427.5,-355 -209.2,-543.47 -613.6,-992.11 -1130.4,-1257.43 -134.11,168.72 -269.03,381.68 -278.12,562.83 -18.77,366.07 225.6,654.3 447.42,543.47 -59.2,133.15 -140.6,199.53 -140.6,199.53 0,0 384.4,81.39 447.4,-188.47 118.6,121.89 47.2,428.69 -192.2,484.21 -187.5,43.26 -275.4,30.82 -275.4,30.82 0,0 17.6,80.4 -64.97,162.98 -82.58,82.38 -763.34,170.49 -1223.64,-289.82 C 8473.25,7722.27 8235,7232.93 8079.72,6844.35 l -41.29,-212.37 c -394.12,269.66 -701.91,654.49 -875.36,1104.91 -42.67,110.83 -177.99,346.51 -427.3,355 -561.64,20.95 -1116.18,-62.82 -2149.97,9.49 C 2408.37,8253.69 1138.5,8547.25 0,8809.8 c 162.586,-362.11 426.121,-667.33 1419.02,-823 -267.68,8.29 -827.348,50.18 -826.165,45.04 85.344,-340.78 633.355,-638.1 1360.155,-646.39 -147.38,-1.58 -734.7,15.21 -834.66,5.33 219.87,-337.62 994.87,-585.35 1449.25,-556.31 -325.77,-16.79 -574.49,-40.3 -824.79,-53.54 239.44,-334.65 1080.62,-504.35 1503.38,-447.06 43.46,5.93 -604.71,-87.32 -789.03,-108.65 306.41,-308.18 1046.44,-415.26 1498.05,-328.14 -275.39,-61.83 -574.49,-124.26 -708.82,-151.32 139.86,-158.84 774.01,-403.8 1441.34,-204.67 58.28,17.39 -507.31,-154.48 -603.32,-180.36 223.43,-165.95 850.27,-281.71 1325.18,-103.72 48.8,18.17 -379.89,-152.31 -474.91,-177.8 213.55,-129.99 952.6,-113.39 1150.35,-18.17 -146.19,-78.04 -245.96,-124.66 -330.11,-163.97 193.4,-94.63 804.63,-61.44 952.79,20.74 -109.05,-65.59 -109.05,-65.59 -199.72,-120.31 174.83,-72.5 389.57,-50.97 747.54,27.07 -59.07,-52.95 -126.83,-74.09 -97.39,-74.87 156.26,-3.56 342.16,1.57 515.81,6.91 l -0.2,-1.19 c -113.4,-225.8 -368.24,-631.18 -785.27,-763.54 12.05,-61.04 184.9,-122.68 324.57,-163.57 -92.05,-90.68 -194.59,-192.22 -289.21,-285.86 -9.09,145.79 -31.81,290.6 -110.83,430.27 -127.22,177.4 -386.22,65.58 -438.17,-72.11 162.98,56.3 247.73,8.89 282.5,-85.34 16,-43.27 12.25,-204.47 4.34,-357.97 -186.68,200.72 -301.07,310.56 -535.76,356.98 -217.31,18.97 -314.7,-246.15 -244.37,-375.35 63.61,160.21 163.97,183.33 248.72,158.64 58.87,-17 129.39,-66.78 198.73,-128.02 -66.96,-52.15 -112.4,-131.96 -113,-201.5 133.16,109.64 229.36,94.23 294.55,18.57 14.23,-16.6 30.43,-34.77 47.02,-52.95 43.07,-50.18 137.5,-149.74 299.3,-171.28 105.49,-28.84 221.45,-73.68 268.87,-138.09 52.15,-70.92 72.69,-170.48 -50.38,-290.99 146.19,-15.02 371,134.73 269.46,327.94 -53.14,133.15 -114.18,200.71 -283.29,275.19 109.84,108.45 227.19,224.61 331.69,327.94 14.03,-104.11 50.38,-222.25 137.5,-298.31 157.85,309.37 468.79,524.31 687.88,645.61 L 7488.84,2550.34 c 378.71,-419.41 942.72,-695.39 1580.42,-715.74 637.9,-20.55 1218.34,218.1 1623.34,612.42 l -676.9,1485.59 c 243.4,-142.82 539.2,-360.33 678.8,-633.94 87,76.06 123.5,193.99 137.3,298.3 104.5,-103.32 222.3,-219.48 331.9,-327.93 -168.9,-74.09 -230.1,-141.65 -283.3,-275.2 -101.5,-193.4 123.5,-342.95 269.5,-327.54 -123.1,120.31 -102.7,219.48 -50.4,290.6 47.4,64.4 163.4,109.64 268.9,138.49 161.6,21.13 256.2,120.7 299.1,170.88 16.6,18.18 33,36.35 47,52.94 65.2,76.06 161.2,91.08 294.4,-18.57 -0.4,69.54 -45.9,149.35 -112.9,201.7 69.4,60.65 139.9,110.83 198.8,128.02 84.7,24.3 185.3,1.18 248.7,-159.03 70.5,128.8 -26.9,394.31 -244.2,375.35 -234.7,-46.23 -349.2,-156.27 -535.9,-356.98 -7.7,153.5 -11.7,315.3 4.5,358.36 34.8,93.44 119.3,141.25 282.5,85.35 -52.1,137.29 -310.9,249.31 -438.2,71.71 -78.8,-139.67 -101.7,-284.28 -111,-429.88 -94.6,93.44 -197.1,194.79 -289.2,285.47 139.9,40.49 312.7,102.72 324.8,163.57 -376.8,119.52 -672.3,487.36 -836.7,736.87 207.5,-6.91 453.4,-16.2 651.2,-11.65 29.2,0.79 -38.2,21.93 -97.2,74.87 357.9,-78.03 572.7,-99.57 747.5,-27.07 -90.9,54.73 -90.9,54.73 -199.7,120.31 148.2,-82.18 759.4,-115.37 952.6,-20.74 -84.2,39.31 -184.1,86.13 -330.3,163.97 197.9,-95.22 937.2,-111.82 1150.3,18.18 -95,25.48 -523.5,195.97 -474.7,177.79 474.7,-177.79 1101.8,-62.03 1325,103.72 -95.6,25.68 -661.6,197.75 -603.3,180.36 667.3,-199.13 1301.7,45.84 1441.3,204.67 -134.3,27.07 -433.4,89.49 -708.8,151.32 451.4,-87.12 1191.4,19.96 1497.8,328.14 -184.1,21.34 -832.2,114.78 -788.8,108.66 423,-57.3 1263.8,112.2 1503.4,447.06 -250.3,13.23 -498.8,36.74 -825,53.53 454.6,-29.04 1229.8,218.5 1449.5,556.31 -100,9.88 -687.1,-6.91 -834.7,-5.33 727,8.3 1274.8,305.81 1360.2,646.39 1.3,5.14 -558.3,-36.74 -826.4,-45.04 994.1,156.07 1257.2,461.29 1420,823.4 z"
         id="path16" />
    </clipPath>
    <clipPath
       clipPathUnits="userSpaceOnUse"
       id="clipPath24">
      <path
         d="M 0,0 H 18310 V 10410 H 0 Z"
         id="path22" />
    </clipPath>
    <clipPath
       clipPathUnits="userSpaceOnUse"
       id="clipPath34">
      <path
         d="m 2520.5,9160 v 927.5 H 2154.75 V 10385 H 3227.5 v -297.5 H 2860 V 9160 Z m 855.75,0 v 1225 h 339.5 V 9926.5 H 4151.5 V 10385 H 4491 V 9160 h -339.5 v 465.5 H 3715.75 V 9160 Z m 1331.75,0 v 1225 h 985.25 v -287 H 5044 v -187.25 h 588 V 9643 h -588 v -194.25 h 658 V 9160 Z m 1557.5,0 519.75,1233.8 H 7112.5 L 7634,9160 h -364 l -87.5,220.5 h -474.25 l -87.5,-220.5 z m 542.5,484.75 h 274.75 l -136.5,346.5 z M 7753,9160 v 1225 h 358.75 L 8404,9910.75 8696.25,10385 H 9055 V 9160 h -337.75 v 703.5 L 8404,9384 h -7 l -311.5,477.75 V 9160 Z m 1519,0 v 1225 h 985.3 v -287 H 9608 v -187.25 h 588 V 9643 h -588 v -194.25 h 658 V 9160 Z m 1169,0 v 1225 h 579.3 c 178.5,0 311.5,-43.7 399,-131.2 72.3,-72.4 108.5,-167.5 108.5,-285.3 v -3.5 c 0,-180.83 -84,-306.83 -252,-378 l 292.2,-427 h -390.2 l -246.8,371 h -150.5 v -371 z m 339.5,637 h 225.8 c 57.1,0 101.7,13.13 133.8,39.38 32.1,26.25 48.2,61.54 48.2,105.87 v 3.5 c 0,47.83 -16.4,84.25 -49,109.35 -32.7,25.1 -77.6,37.7 -134.8,37.7 h -224 z m 927.5,-637 v 1225 h 339.5 V 9160 Z m 1155,-24.5 c -176.2,0 -325.5,60.38 -448,181.13 -122.5,120.75 -183.7,271.54 -183.7,452.37 v 3.5 c 0,179.67 61.2,330.8 183.7,453.3 122.5,122.5 275.9,183.7 460.3,183.7 222.8,0 396,-84.6 519.7,-253.7 L 13139.5,9958 c -78.2,95.7 -167.4,143.5 -267.7,143.5 -84,0 -153.8,-31.5 -209.2,-94.5 -55.4,-63 -83.1,-140 -83.1,-231 v -3.5 c 0,-93.33 27.4,-171.21 82.3,-233.62 54.8,-62.42 124.8,-93.63 210,-93.63 59.5,0 110.2,12.54 152.2,37.63 42,25.08 83.4,62.12 124.3,111.12 l 255.5,-182 c -64.2,-87.5 -138.9,-155.46 -224,-203.87 -85.2,-48.42 -190.8,-72.63 -316.8,-72.63 z m 591.5,24.5 519.8,1233.8 h 327.2 L 14823,9160 h -364 l -87.5,220.5 h -474.2 l -87.5,-220.5 z m 542.5,484.75 h 274.8 l -136.5,346.5 z M 14942,9160 v 1225 h 316.8 l 504,-647.5 v 647.5 h 336 V 9160 H 15803 l -525,672 v -672 z"
         clip-rule="evenodd"
         id="path32" />
    </clipPath>
    <clipPath
       clipPathUnits="userSpaceOnUse"
       id="clipPath40">
      <path
         d="M 0,0 H 18310 V 10410 H 0 Z"
         id="path38" />
    </clipPath>
    <clipPath
       clipPathUnits="userSpaceOnUse"
       id="clipPath50">
      <path
         d="m 2050,30.5 v 1225 h 339.5 V 797 h 435.75 v 458.5 h 339.5 V 30.5 h -339.5 V 496 H 2389.5 V 30.5 Z m 1235.5,0 519.75,1233.75 H 4132.5 L 4654,30.5 H 4290 L 4202.5,251 H 3728.25 L 3640.75,30.5 Z M 3828,515.25 h 274.75 l -136.5,346.5 z M 4781.75,30.5 v 1225 h 339.5 V 30.5 Z m 563.5,0 v 1225 h 339.5 V 328 H 6278 V 30.5 Z M 7501.25,6 c -176.17,0 -325.5,60.375 -448,181.125 -122.5,120.75 -183.75,271.539 -183.75,452.375 v 3.5 c 0,179.668 61.25,330.75 183.75,453.25 122.5,122.5 275.91,183.75 460.25,183.75 222.84,0 396.08,-84.58 519.75,-253.75 L 7777.75,828.5 C 7699.58,924.168 7610.34,972 7510,972 c -84,0 -153.71,-31.5 -209.12,-94.5 -55.42,-63 -83.13,-140 -83.13,-231 V 643 c 0,-93.332 27.42,-171.207 82.25,-233.625 54.83,-62.418 124.83,-93.625 210,-93.625 59.5,0 110.25,12.543 152.25,37.625 42,25.082 83.42,62.125 124.25,111.125 L 8042,282.5 C 7977.83,195 7903.17,127.043 7818,78.625 7732.83,30.207 7627.25,6 7501.25,6 Z M 9277.5,191.5 C 9151.5,67.832 8994.59,6 8806.75,6 8618.92,6 8462.29,67.25 8336.88,189.75 8211.46,312.25 8148.75,462.164 8148.75,639.5 v 3.5 c 0,177.336 63.29,327.832 189.88,451.5 126.58,123.67 283.79,185.5 471.62,185.5 187.84,0 344.46,-61.25 469.88,-183.75 125.41,-122.5 188.12,-272.414 188.12,-449.75 V 643 c 0,-177.336 -63.58,-327.832 -190.75,-451.5 z m -693,217 c 59.5,-64.168 134.75,-96.25 225.75,-96.25 91,0 165.38,31.793 223.13,95.375 C 9091.13,471.207 9120,548.5 9120,639.5 v 3.5 c 0,91 -29.46,168.875 -88.37,233.625 -58.92,64.75 -133.88,97.125 -224.88,97.125 -91,0 -165.67,-31.793 -224,-95.375 -58.33,-63.582 -87.5,-140.875 -87.5,-231.875 V 643 c 0,-91 29.75,-169.168 89.25,-234.5 z m 1058.75,-378 v 1225 H 10002 l 292.3,-474.25 292.2,474.25 h 358.8 V 30.5 h -337.8 V 734 l -313.2,-479.5 h -7 L 9975.75,732.25 V 30.5 Z m 1519.05,0 v 1225 h 526.7 c 155.2,0 278.5,-37.92 370.1,-113.75 91.6,-75.83 137.4,-180.832 137.4,-315 v -3.5 c 0,-141.168 -48.4,-250.25 -145.2,-327.25 -96.9,-77 -223.5,-115.5 -379.8,-115.5 h -169.7 v -350 z m 339.5,616 h 162.7 c 59.5,0 106.8,14.875 141.8,44.625 35,29.75 52.5,68.543 52.5,116.375 v 3.5 c 0,51.332 -17.3,90.707 -51.7,118.125 -34.4,27.418 -82.5,41.125 -144.3,41.125 h -161 z m 742,-616 519.7,1233.75 h 327.3 L 13612.3,30.5 h -364 l -87.5,220.5 h -474.3 L 12599,30.5 Z m 542.5,484.75 h 274.7 l -136.5,346.5 z m 945,-484.75 v 1225 H 14048 L 14552,608 v 647.5 h 336 V 30.5 h -295.7 l -525,672 v -672 z m 1729,0 V 489 l -467.3,766.5 h 386.8 l 252,-446.25 253.7,446.25 h 379.8 L 15799.8,494.25 V 30.5 Z"
         clip-rule="evenodd"
         id="path48" />
    </clipPath>
    <clipPath
       clipPathUnits="userSpaceOnUse"
       id="clipPath56">
      <path
         d="M 0,0 H 18310 V 10410 H 0 Z"
         id="path54" />
    </clipPath>
    <clipPath
       clipPathUnits="userSpaceOnUse"
       id="clipPath66">
      <path
         d="m 14710,4660.51 322.9,-695.63 777.1,-85.03 -577.5,-514.96 157.3,-748.18 -679.8,377.37 -679.8,-377.37 157.3,748.18 -577.5,514.96 777.1,85.03 z"
         id="path64" />
    </clipPath>
    <clipPath
       clipPathUnits="userSpaceOnUse"
       id="clipPath72">
      <path
         d="M 0,0 H 18310 V 10410 H 0 Z"
         id="path70" />
    </clipPath>
    <clipPath
       clipPathUnits="userSpaceOnUse"
       id="clipPath84">
      <path
         d="m 3600,4660.51 322.92,-695.63 777.08,-85.03 -577.5,-514.96 157.34,-748.18 -679.84,377.37 -679.84,-377.37 157.34,748.18 -577.5,514.96 777.08,85.03 z"
         id="path82" />
    </clipPath>
    <clipPath
       clipPathUnits="userSpaceOnUse"
       id="clipPath90">
      <path
         d="M 0,0 H 18310 V 10410 H 0 Z"
         id="path88" />
    </clipPath>
  </defs>
  <sodipodi:namedview
     id="namedview4"
     pagecolor="#ffffff"
     bordercolor="#000000"
     borderopacity="0.25"
     inkscape:showpageshadow="2"
     inkscape:pageopacity="0.0"
     inkscape:pagecheckerboard="0"
     inkscape:deskcolor="#d1d1d1" />
  <g
     id="g8"
     inkscape:groupmode="layer"
     inkscape:label="ink_ext_XXXXXX"
     transform="matrix(1.3333333,0,0,-1.3333333,0,1388)">
    <g
       id="g10"
       transform="scale(0.1)">
      <g
         id="g12">
        <g
           id="g14"
           clip-path="url(#clipPath18)">
          <g
             id="g20"
             clip-path="url(#clipPath24)">
            <path
               d="M -50,1783.38 H 18360 V 8860.01 H -50 Z"
               style="fill:#bf082e;fill-opacity:1;fill-rule:nonzero;stroke:none"
               id="path26" />
          </g>
        </g>
      </g>
      <g
         id="g28">
        <g
           id="g30"
           clip-path="url(#clipPath34)">
          <g
             id="g36"
             clip-path="url(#clipPath40)">
            <path
               d="m 2104.75,9085.5 h 14044 v 1374 h -14044 z"
               style="fill:#002468;fill-opacity:1;fill-rule:nonzero;stroke:none"
               id="path42" />
          </g>
        </g>
      </g>
      <g
         id="g44">
        <g
           id="g46"
           clip-path="url(#clipPath50)">
          <g
             id="g52"
             clip-path="url(#clipPath56)">
            <path
               d="M 2000,-44 H 16315.3 V 1330 H 2000 Z"
               style="fill:#002468;fill-opacity:1;fill-rule:nonzero;stroke:none"
               id="path58" />
          </g>
        </g>
      </g>
      <g
         id="g60">
        <g
           id="g62"
           clip-path="url(#clipPath66)">
          <g
             id="g68"
             clip-path="url(#clipPath72)">
            <path
               d="m 14710,4660.51 322.9,-695.63 777.1,-85.03 -577.5,-514.96 157.3,-748.18 -679.8,377.37 -679.8,-377.37 157.3,748.18 -577.5,514.96 777.1,85.03 322.9,695.63"
               style="fill:#ffffff;fill-opacity:1;fill-rule:nonzero;stroke:none"
               id="path74" />
            <path
               d="m 14710,4660.51 322.9,-695.63 777.1,-85.03 -577.5,-514.96 157.3,-748.18 -679.8,377.37 -679.8,-377.37 157.3,748.18 -577.5,514.96 777.1,85.03 z"
               style="fill:none;stroke:#002468;stroke-width:400;stroke-linecap:butt;stroke-linejoin:miter;stroke-miterlimit:10;stroke-dasharray:none;stroke-opacity:1"
               id="path76" />
          </g>
        </g>
      </g>
      <g
         id="g78">
        <g
           id="g80"
           clip-path="url(#clipPath84)">
          <g
             id="g86"
             clip-path="url(#clipPath90)">
            <path
               d="m 3600,4660.51 322.92,-695.63 777.08,-85.03 -577.5,-514.96 157.34,-748.18 -679.84,377.37 -679.84,-377.37 157.34,748.18 -577.5,514.96 777.08,85.03 322.92,695.63"
               style="fill:#ffffff;fill-opacity:1;fill-rule:nonzero;stroke:none"
               id="path92" />
            <path
               d="m 3600,4660.51 322.92,-695.63 777.08,-85.03 -577.5,-514.96 157.34,-748.18 -679.84,377.37 -679.84,-377.37 157.34,748.18 -577.5,514.96 777.08,85.03 z"
               style="fill:none;stroke:#002468;stroke-width:400;stroke-linecap:butt;stroke-linejoin:miter;stroke-miterlimit:10;stroke-dasharray:none;stroke-opacity:1"
               id="path94" />
          </g>
        </g>
      </g>
    </g>
  </g>
</svg>
